<?xml version="1.0" ?><!DOCTYPE svg  PUBLIC '-//W3C//DTD SVG 1.1//EN'  'http://www.w3.org/Graphics/SVG/1.1/DTD/svg11.dtd'><svg enable-background="new 0 0 30 30" height="30px" id="Capa_1" version="1.1" viewBox="0 0 30 30" width="30px" xml:space="preserve" xmlns="http://www.w3.org/2000/svg" xmlns:xlink="http://www.w3.org/1999/xlink"><path d="M8.3,22.9c-1.7,0-3,1.4-3,3s1.4,3,3,3s3-1.4,3-3S10,22.9,8.3,22.9z M8.3,27.5c-0.8,0-1.5-0.7-1.5-1.5  s0.7-1.5,1.5-1.5s1.5,0.7,1.5,1.5S9.2,27.5,8.3,27.5z M8.8,11.5c-0.1,0.4,0,0.8,0.3,1.1l3.1,2.7c0.4,0.3,0.9,0.3,1.3,0l3.2-2.7  c0.3-0.3,0.4-0.7,0.3-1.1c-0.1-0.4-0.5-0.7-0.9-0.7h-2.1V2.8c0-0.6-0.5-1-1-1c-0.6,0-1,0.5-1,1v8.1H9.7C9.3,10.9,8.9,11.1,8.8,11.5z   M17.8,22.9c-1.7,0-3,1.4-3,3s1.4,3,3,3c1.7,0,3-1.4,3-3S19.5,22.9,17.8,22.9z M17.8,27.5c-0.8,0-1.5-0.7-1.5-1.5s0.7-1.5,1.5-1.5  c0.8,0,1.5,0.7,1.5,1.5S18.7,27.5,17.8,27.5z M29.2,2.4H27c-1.8,0-2.9,1-3.3,2.9c-0.5,2-0.9,3.7-1.2,5.2c-0.6,2.6-1.1,4.7-1.7,7.2  c-0.5,1.9-1.5,2.7-3.4,2.7H7.9c-1.6,0-2.6-0.2-3.7-2.7c-1.5-3.4-1.9-4.4-2.4-5.7C1.5,10.8,1.5,9.7,2,9c0.4-0.6,1.1-0.9,2.1-0.9h4.7  c0.4,0,0.8-0.3,0.8-0.8S9.2,6.7,8.8,6.7H4.1c-1.9,0-2.9,0.8-3.3,1.5C0,9.2-0.1,10.8,0.4,12.4c0.5,1.4,0.9,2.3,2.4,5.8  c1.3,3,2.9,3.6,5.1,3.6h9.5c2.6,0,4.1-1.2,4.8-3.8c0.7-2.5,1.1-4.6,1.7-7.2c0.3-1.5,0.7-3.1,1.2-5.2c0.3-1.5,1-1.8,1.9-1.8h2.2  c0.4,0,0.8-0.3,0.8-0.8S29.6,2.4,29.2,2.4z" fill="#262324"/></svg>